<svg xmlns="http://www.w3.org/2000/svg" viewBox="64 360 1424 864"><defs><path id="a" d="M1079 685c-64 0-109 43-109 102v46c0 40-10 57-37 66-8 3-12 9-12 19v16h77c30-25 38-47 40-106v-36c0-32 12-45 35-46 12-1 17-8 18-21v-22c0-13-4-18-12-18"/></defs><g fill="#fff"><path fill-rule="evenodd" d="M481 405c-25-14-58 47-82 124-66 25-118 63-169 111-53-3-138-3-141 26-3 41 27 114 56 157-4 89 25 168 86 225 72 67 163 81 283 41 84-28 174-95 228-176 19-20 48-31 86-32V771c-28 1-45 0-55-3-5-76-51-164-136-220-20-13-43-19-47-26-26-53-75-98-109-117m87 210c54 10 96 47 116 101 23 63 3 134-66 197-48 43-114 79-173 98-70 23-138 1-179-57-45-65-32-159 28-215 37-34 124-86 180-112 30-14 63-18 94-12"/><path d="M851 731c-18-17-32-9-32 16v165c0 26 14 33 32 16l83-80c14-14 14-26 0-39Z"/><path stroke="#fff" stroke-linecap="round" stroke-width="61" d="m523 742 38 72m-182 22 36 68"/><path stroke="#fff" stroke-width="38" d="M1191 718v420"/><circle cx="1191" cy="718" r="59"/><circle cx="1191" cy="929" r="59"/><circle cx="1191" cy="1138" r="59"/><use href="#a" transform="matrix(-1 0 0 1 2374 0)"/><use href="#a" transform="rotate(180 1187 933)"/><use href="#a"/><use href="#a" transform="matrix(1 0 0 -1 0 1866)"/></g></svg>